<svg xmlns="http://www.w3.org/2000/svg" width="160.076" height="109.246" viewBox="0 0 160.076 109.246">
  <g id="abstract" transform="matrix(0.208, 0.978, -0.978, 0.208, 148.809, -21.253)">
    <path id="stroke" d="M88.143,130.784c14.416-18.8,15.141-48.218-20.752-84.819-18.5-13-36.84-12.532-45-10-14.5,4.5-21.5,33-1.5,46,18.5,12.025,41.1-1.9,37.6-27.9C55.817,34.176,18.833,8.333,0,0" transform="translate(96.367 164.196) rotate(-171.629)" fill="none" stroke="#e0e0e0" stroke-linecap="round" stroke-width="3" stroke-dasharray="5 8"/>
    <path id="icon" d="M5.317,28.156A5,5,0,0,1,.394,21.234L8,3.069A5,5,0,0,1,16.691,2.1L20.7,7.736a2,2,0,0,1-.468,2.787l-5.7,4.065a1.5,1.5,0,1,0,1.743,2.442l5.685-4.058a2,2,0,0,1,2.792.469l3.986,5.606a5,5,0,0,1-3.765,7.888Z" transform="translate(57.771 29.105) rotate(-178.158)" fill="#e0e0e0"/>
  </g>
</svg>
