<svg xmlns="http://www.w3.org/2000/svg" width="62.156" height="57.25" viewBox="0 0 62.156 57.25">
  <g id="Group_73112" data-name="Group 73112" transform="translate(-3397.84 7371)">
    <path id="Ellipse_1923" data-name="Ellipse 1923" d="M47.994-24a24,24,0,0,1-1.827,9.183,24,24,0,0,1-5.2,7.785,24,24,0,0,1-7.785,5.2A24,24,0,0,1,24,0a24,24,0,0,1-9.183-1.827,24,24,0,0,1-7.785-5.2,24,24,0,0,1-5.2-7.785A24,24,0,0,1,0-24H47.994Z" transform="translate(3459.996 -7337.063) rotate(-135)" fill="#e4aa3c"/>
    <path id="Vector_7067" data-name="Vector 7067" d="M0,0H29L15.037,23Z" transform="translate(3399.09 -7338)" fill="none" stroke="#058a94" stroke-linejoin="round" stroke-width="2.5"/>
  </g>
</svg>
