<svg xmlns="http://www.w3.org/2000/svg" xmlns:xlink="http://www.w3.org/1999/xlink" width="234.394" height="311.188" viewBox="0 0 234.394 311.188">
  <defs>
    <clipPath id="clip-path">
      <path id="Path_33" data-name="Path 33" d="M162.852,118.722a3.037,3.037,0,0,1-1.293.052,4,4,0,0,1-1.289-.462,4.748,4.748,0,0,1-1.975-2.139,3.958,3.958,0,0,1-.356-1.37,3.028,3.028,0,0,1,.164-1.234,2.385,2.385,0,0,1,1.688-1.531,3.043,3.043,0,0,1,1.29-.047,4.007,4.007,0,0,1,1.283.463,4.749,4.749,0,0,1,1.968,2.129,3.963,3.963,0,0,1,.359,1.365,3.037,3.037,0,0,1-.158,1.234,2.385,2.385,0,0,1-1.681,1.541ZM152.209,95.481a3.082,3.082,0,0,1-1.288.036,4.057,4.057,0,0,1-1.281-.466,4.714,4.714,0,0,1-1.127-.887,4.618,4.618,0,0,1-.826-1.224,3.818,3.818,0,0,1-.346-1.342,2.9,2.9,0,0,1,.171-1.2,2.359,2.359,0,0,1,.638-.936,2.42,2.42,0,0,1,1.054-.54,3.09,3.09,0,0,1,1.285-.032,4.06,4.06,0,0,1,1.275.466,4.714,4.714,0,0,1,1.122.883,4.619,4.619,0,0,1,.825,1.218,3.827,3.827,0,0,1,.349,1.337,2.906,2.906,0,0,1-.165,1.2,2.363,2.363,0,0,1-.632.94,2.415,2.415,0,0,1-1.052.546ZM141.761,72.664a3.128,3.128,0,0,1-1.283.021,4.111,4.111,0,0,1-1.273-.47,4.716,4.716,0,0,1-1.117-.879,4.536,4.536,0,0,1-.815-1.205,3.681,3.681,0,0,1-.335-1.314,2.774,2.774,0,0,1,.178-1.173,2.288,2.288,0,0,1,.641-.907,2.415,2.415,0,0,1,1.053-.515,3.135,3.135,0,0,1,1.28-.016,4.114,4.114,0,0,1,1.267.47,4.716,4.716,0,0,1,1.112.875,4.538,4.538,0,0,1,.814,1.2,3.69,3.69,0,0,1,.339,1.31,2.782,2.782,0,0,1-.173,1.173,2.29,2.29,0,0,1-.636.911A2.41,2.41,0,0,1,141.761,72.664ZM131.5,50.259a3.175,3.175,0,0,1-1.278.006,4.163,4.163,0,0,1-1.265-.473,4.717,4.717,0,0,1-1.107-.871,4.456,4.456,0,0,1-.8-1.186,3.554,3.554,0,0,1-.326-1.287,2.657,2.657,0,0,1,.185-1.144,2.222,2.222,0,0,1,.645-.879,2.41,2.41,0,0,1,1.053-.492,3.183,3.183,0,0,1,1.275,0,4.168,4.168,0,0,1,1.259.473,4.717,4.717,0,0,1,1.1.867,4.458,4.458,0,0,1,.8,1.181,3.562,3.562,0,0,1,.329,1.283,2.665,2.665,0,0,1-.18,1.144,2.223,2.223,0,0,1-.639.883,2.406,2.406,0,0,1-1.051.5Zm-10.075-22a3.224,3.224,0,0,1-1.273-.008,4.217,4.217,0,0,1-1.257-.476,4.717,4.717,0,0,1-1.1-.863,4.377,4.377,0,0,1-.793-1.168,3.429,3.429,0,0,1-.316-1.262,2.547,2.547,0,0,1,.192-1.116,2.16,2.16,0,0,1,.648-.851,2.41,2.41,0,0,1,1.052-.469,3.232,3.232,0,0,1,1.27.012,4.221,4.221,0,0,1,1.251.476,4.72,4.72,0,0,1,1.092.859,4.38,4.38,0,0,1,.792,1.162,3.438,3.438,0,0,1,.319,1.258,2.554,2.554,0,0,1-.186,1.116,2.16,2.16,0,0,1-.643.855A2.4,2.4,0,0,1,121.427,28.256Zm-9.9-21.612a3.272,3.272,0,0,1-1.268-.022,4.268,4.268,0,0,1-1.249-.479,4.718,4.718,0,0,1-1.087-.856,4.305,4.305,0,0,1-.783-1.15,3.311,3.311,0,0,1-.307-1.237,2.44,2.44,0,0,1,.2-1.089,2.1,2.1,0,0,1,.651-.825A2.412,2.412,0,0,1,108.735.54,3.281,3.281,0,0,1,110,.566a4.271,4.271,0,0,1,1.243.479,4.718,4.718,0,0,1,1.082.852,4.308,4.308,0,0,1,.782,1.145,3.32,3.32,0,0,1,.31,1.233,2.448,2.448,0,0,1-.193,1.089,2.1,2.1,0,0,1-.646.829A2.4,2.4,0,0,1,111.53,6.644Zm31.233,117.421a3.133,3.133,0,0,1-1.324.056,4.056,4.056,0,0,1-1.313-.467,4.736,4.736,0,0,1-1.994-2.169,3.959,3.959,0,0,1-.347-1.392,3.078,3.078,0,0,1,.183-1.255,2.485,2.485,0,0,1,1.747-1.56,3.139,3.139,0,0,1,1.32-.052,4.061,4.061,0,0,1,1.307.467,4.736,4.736,0,0,1,1.987,2.159,3.966,3.966,0,0,1,.35,1.386,3.088,3.088,0,0,1-.177,1.255,2.485,2.485,0,0,1-1.738,1.572Zm-10.595-23.6a3.178,3.178,0,0,1-1.318.04,4.11,4.11,0,0,1-1.3-.471,4.718,4.718,0,0,1-1.142-.9,4.6,4.6,0,0,1-.83-1.242,3.817,3.817,0,0,1-.336-1.363,2.946,2.946,0,0,1,.191-1.223,2.446,2.446,0,0,1,.664-.953,2.527,2.527,0,0,1,1.085-.551,3.187,3.187,0,0,1,1.315-.035,4.116,4.116,0,0,1,1.3.471,4.718,4.718,0,0,1,1.137.894,4.6,4.6,0,0,1,.828,1.236,3.825,3.825,0,0,1,.34,1.357,2.955,2.955,0,0,1-.184,1.223,2.45,2.45,0,0,1-.658.957,2.521,2.521,0,0,1-1.083.558Zm-10.4-23.16a3.226,3.226,0,0,1-1.313.024,4.167,4.167,0,0,1-1.3-.474,4.718,4.718,0,0,1-1.131-.89,4.514,4.514,0,0,1-.819-1.223,3.682,3.682,0,0,1-.326-1.334,2.819,2.819,0,0,1,.2-1.193,2.375,2.375,0,0,1,.668-.923,2.522,2.522,0,0,1,1.084-.526,3.235,3.235,0,0,1,1.31-.02,4.171,4.171,0,0,1,1.29.474,4.717,4.717,0,0,1,1.126.886,4.513,4.513,0,0,1,.817,1.216,3.687,3.687,0,0,1,.33,1.329,2.828,2.828,0,0,1-.191,1.192,2.377,2.377,0,0,1-.662.927,2.514,2.514,0,0,1-1.082.533ZM111.561,54.572a3.274,3.274,0,0,1-1.308.009,4.221,4.221,0,0,1-1.288-.478,4.718,4.718,0,0,1-1.121-.882,4.43,4.43,0,0,1-.807-1.2,3.549,3.549,0,0,1-.317-1.307,2.7,2.7,0,0,1,.2-1.163,2.306,2.306,0,0,1,.671-.894,2.516,2.516,0,0,1,1.083-.5,3.279,3.279,0,0,1,1.3,0,4.219,4.219,0,0,1,1.282.478,4.718,4.718,0,0,1,1.116.878,4.435,4.435,0,0,1,.806,1.2,3.557,3.557,0,0,1,.32,1.3,2.709,2.709,0,0,1-.2,1.162,2.307,2.307,0,0,1-.665.9,2.511,2.511,0,0,1-1.081.508ZM101.538,32.249a3.321,3.321,0,0,1-1.3-.006,4.273,4.273,0,0,1-1.28-.481,4.72,4.72,0,0,1-1.111-.874,4.354,4.354,0,0,1-.8-1.185,3.426,3.426,0,0,1-.307-1.28,2.587,2.587,0,0,1,.211-1.134,2.242,2.242,0,0,1,.674-.866,2.516,2.516,0,0,1,1.082-.478,3.329,3.329,0,0,1,1.3.01,4.276,4.276,0,0,1,1.274.481,4.719,4.719,0,0,1,1.106.87,4.357,4.357,0,0,1,.8,1.179,3.434,3.434,0,0,1,.31,1.276,2.6,2.6,0,0,1-.2,1.133,2.243,2.243,0,0,1-.668.87,2.509,2.509,0,0,1-1.079.485ZM91.7,10.327a3.372,3.372,0,0,1-1.3-.02,4.324,4.324,0,0,1-1.271-.484,4.719,4.719,0,0,1-1.1-.866,4.281,4.281,0,0,1-.786-1.166,3.307,3.307,0,0,1-.3-1.254,2.481,2.481,0,0,1,.217-1.105,2.183,2.183,0,0,1,.676-.839,2.517,2.517,0,0,1,1.081-.455,3.38,3.38,0,0,1,1.294.024,4.33,4.33,0,0,1,1.266.484,4.718,4.718,0,0,1,1.1.863,4.282,4.282,0,0,1,.785,1.161,3.315,3.315,0,0,1,.3,1.25,2.489,2.489,0,0,1-.211,1.105,2.183,2.183,0,0,1-.67.843,2.509,2.509,0,0,1-1.078.462Zm30.44,119.224a3.234,3.234,0,0,1-1.355.061,4.111,4.111,0,0,1-1.338-.471,4.719,4.719,0,0,1-1.168-.919,4.658,4.658,0,0,1-.845-1.282,3.962,3.962,0,0,1-.337-1.414,3.132,3.132,0,0,1,.2-1.277,2.621,2.621,0,0,1,.689-1,2.65,2.65,0,0,1,1.119-.59,3.239,3.239,0,0,1,1.352-.056,4.114,4.114,0,0,1,1.332.471,4.719,4.719,0,0,1,1.163.915,4.661,4.661,0,0,1,.844,1.275,3.969,3.969,0,0,1,.34,1.408,3.141,3.141,0,0,1-.2,1.276,2.591,2.591,0,0,1-1.8,1.6Zm-10.541-23.963a3.281,3.281,0,0,1-1.35.044,4.165,4.165,0,0,1-1.329-.475,4.719,4.719,0,0,1-1.157-.91,4.572,4.572,0,0,1-.833-1.261,3.817,3.817,0,0,1-.327-1.384,3,3,0,0,1,.211-1.244,2.541,2.541,0,0,1,.692-.97,2.64,2.64,0,0,1,1.118-.563,3.287,3.287,0,0,1,1.346-.039,4.17,4.17,0,0,1,1.323.475,4.718,4.718,0,0,1,1.152.906,4.574,4.574,0,0,1,.832,1.254,3.825,3.825,0,0,1,.33,1.379,3,3,0,0,1-.2,1.244,2.543,2.543,0,0,1-.686.974,2.635,2.635,0,0,1-1.115.57ZM101.251,82.075a3.328,3.328,0,0,1-1.344.028,4.22,4.22,0,0,1-1.321-.479,4.722,4.722,0,0,1-1.146-.9,4.489,4.489,0,0,1-.822-1.24,3.682,3.682,0,0,1-.317-1.355,2.868,2.868,0,0,1,.218-1.212,2.465,2.465,0,0,1,.7-.939,2.633,2.633,0,0,1,1.117-.537,3.335,3.335,0,0,1,1.341-.023,4.225,4.225,0,0,1,1.315.479,4.721,4.721,0,0,1,1.141.9,4.492,4.492,0,0,1,.82,1.234,3.688,3.688,0,0,1,.32,1.35,2.877,2.877,0,0,1-.211,1.212,2.466,2.466,0,0,1-.689.943,2.627,2.627,0,0,1-1.114.544ZM91.1,59a3.375,3.375,0,0,1-1.338.012,4.274,4.274,0,0,1-1.312-.482,4.721,4.721,0,0,1-1.136-.894,4.406,4.406,0,0,1-.811-1.221,3.548,3.548,0,0,1-.307-1.327A2.748,2.748,0,0,1,86.42,53.9a2.4,2.4,0,0,1,.7-.91,2.629,2.629,0,0,1,1.115-.512,3.382,3.382,0,0,1,1.335-.008,4.278,4.278,0,0,1,1.306.482,4.721,4.721,0,0,1,1.131.89,4.411,4.411,0,0,1,.809,1.214,3.557,3.557,0,0,1,.31,1.322,2.755,2.755,0,0,1-.218,1.181,2.4,2.4,0,0,1-.692.914A2.622,2.622,0,0,1,91.1,59ZM81.135,36.345a3.424,3.424,0,0,1-1.333,0,4.329,4.329,0,0,1-1.3-.486,4.721,4.721,0,0,1-1.125-.886,4.329,4.329,0,0,1-.8-1.2,3.422,3.422,0,0,1-.3-1.3,2.632,2.632,0,0,1,.231-1.152,2.328,2.328,0,0,1,.7-.881,2.626,2.626,0,0,1,1.113-.488,3.432,3.432,0,0,1,1.329.007,4.331,4.331,0,0,1,1.3.486,4.723,4.723,0,0,1,1.12.881,4.335,4.335,0,0,1,.8,1.2,3.431,3.431,0,0,1,.3,1.295,2.639,2.639,0,0,1-.224,1.151,2.329,2.329,0,0,1-.695.885,2.619,2.619,0,0,1-1.111.494ZM71.352,14.1a3.474,3.474,0,0,1-1.327-.018A4.381,4.381,0,0,1,68.73,13.6a4.724,4.724,0,0,1-1.115-.878,4.253,4.253,0,0,1-.789-1.183,3.3,3.3,0,0,1-.288-1.273,2.523,2.523,0,0,1,.237-1.123,2.267,2.267,0,0,1,.7-.853,2.628,2.628,0,0,1,1.112-.464,3.482,3.482,0,0,1,1.324.022,4.387,4.387,0,0,1,1.289.489,4.723,4.723,0,0,1,1.11.874,4.258,4.258,0,0,1,.788,1.177,3.31,3.31,0,0,1,.291,1.268,2.53,2.53,0,0,1-.23,1.122,2.267,2.267,0,0,1-.7.857,2.619,2.619,0,0,1-1.109.471ZM100.01,135.436a3.345,3.345,0,0,1-1.39.066,4.171,4.171,0,0,1-1.366-.476,4.72,4.72,0,0,1-1.185-.932,4.633,4.633,0,0,1-.849-1.3,3.967,3.967,0,0,1-.326-1.438,3.193,3.193,0,0,1,.226-1.3,2.728,2.728,0,0,1,.72-1.021,2.777,2.777,0,0,1,1.155-.6,3.352,3.352,0,0,1,1.387-.061,4.174,4.174,0,0,1,1.359.476,4.719,4.719,0,0,1,1.179.927,4.636,4.636,0,0,1,.847,1.3,3.975,3.975,0,0,1,.33,1.432,3.2,3.2,0,0,1-.219,1.3,2.729,2.729,0,0,1-.713,1.026,2.772,2.772,0,0,1-1.153.611ZM89.533,111.08a3.39,3.39,0,0,1-1.384.048,4.225,4.225,0,0,1-1.356-.48,4.72,4.72,0,0,1-1.174-.923,4.548,4.548,0,0,1-.837-1.281,3.823,3.823,0,0,1-.316-1.408,3.055,3.055,0,0,1,.233-1.266,2.644,2.644,0,0,1,.723-.989,2.765,2.765,0,0,1,1.154-.576,3.4,3.4,0,0,1,1.381-.044,4.229,4.229,0,0,1,1.35.48,4.72,4.72,0,0,1,1.168.919,4.549,4.549,0,0,1,.835,1.274,3.829,3.829,0,0,1,.32,1.4A3.061,3.061,0,0,1,91.4,109.5a2.645,2.645,0,0,1-.716.993,2.758,2.758,0,0,1-1.151.583ZM79.254,87.186a3.44,3.44,0,0,1-1.378.032,4.281,4.281,0,0,1-1.347-.484,4.721,4.721,0,0,1-1.163-.915,4.465,4.465,0,0,1-.825-1.26,3.683,3.683,0,0,1-.306-1.378,2.922,2.922,0,0,1,.24-1.234,2.566,2.566,0,0,1,.726-.957,2.758,2.758,0,0,1,1.152-.549,3.449,3.449,0,0,1,1.375-.027,4.286,4.286,0,0,1,1.341.484,4.722,4.722,0,0,1,1.157.91,4.468,4.468,0,0,1,.824,1.253,3.689,3.689,0,0,1,.309,1.372,2.931,2.931,0,0,1-.233,1.233,2.566,2.566,0,0,1-.719.961,2.751,2.751,0,0,1-1.149.556ZM69.17,63.741a3.488,3.488,0,0,1-1.372.015,4.338,4.338,0,0,1-1.338-.487,4.723,4.723,0,0,1-1.152-.906,4.383,4.383,0,0,1-.814-1.239,3.55,3.55,0,0,1-.3-1.349,2.8,2.8,0,0,1,.246-1.2,2.493,2.493,0,0,1,.728-.926,2.752,2.752,0,0,1,1.15-.523,3.5,3.5,0,0,1,1.368-.011,4.342,4.342,0,0,1,1.332.488,4.723,4.723,0,0,1,1.146.9,4.386,4.386,0,0,1,.812,1.233,3.558,3.558,0,0,1,.3,1.343,2.807,2.807,0,0,1-.24,1.2,2.493,2.493,0,0,1-.722.931,2.745,2.745,0,0,1-1.147.53Zm-9.9-23.007a3.537,3.537,0,0,1-1.366,0,4.391,4.391,0,0,1-1.329-.491,4.721,4.721,0,0,1-1.141-.9,4.3,4.3,0,0,1-.8-1.219,3.421,3.421,0,0,1-.287-1.32,2.681,2.681,0,0,1,.253-1.171,2.424,2.424,0,0,1,.731-.9,2.748,2.748,0,0,1,1.148-.5,3.545,3.545,0,0,1,1.362,0,4.4,4.4,0,0,1,1.323.491,4.723,4.723,0,0,1,1.136.894,4.308,4.308,0,0,1,.8,1.213,3.431,3.431,0,0,1,.29,1.315,2.689,2.689,0,0,1-.246,1.171,2.424,2.424,0,0,1-.724.9,2.741,2.741,0,0,1-1.145.5ZM49.559,18.152a3.588,3.588,0,0,1-1.36-.015,4.445,4.445,0,0,1-1.32-.494,4.723,4.723,0,0,1-1.131-.89,4.226,4.226,0,0,1-.792-1.2,3.3,3.3,0,0,1-.277-1.293,2.572,2.572,0,0,1,.258-1.141,2.361,2.361,0,0,1,.733-.868,2.749,2.749,0,0,1,1.146-.474,3.6,3.6,0,0,1,1.356.02,4.446,4.446,0,0,1,1.314.494,4.723,4.723,0,0,1,1.125.885,4.231,4.231,0,0,1,.79,1.194,3.308,3.308,0,0,1,.281,1.288,2.577,2.577,0,0,1-.252,1.141,2.36,2.36,0,0,1-.726.872,2.74,2.74,0,0,1-1.143.481ZM78.208,141.235a3.457,3.457,0,0,1-1.425.071,4.231,4.231,0,0,1-1.392-.48,4.722,4.722,0,0,1-1.2-.945,4.612,4.612,0,0,1-.852-1.322,3.975,3.975,0,0,1-.315-1.462,3.253,3.253,0,0,1,.249-1.323,2.836,2.836,0,0,1,.751-1.041,2.906,2.906,0,0,1,1.191-.617,3.465,3.465,0,0,1,1.421-.066,4.233,4.233,0,0,1,1.386.48,4.721,4.721,0,0,1,1.2.94,4.613,4.613,0,0,1,.851,1.315,3.979,3.979,0,0,1,.319,1.456,3.262,3.262,0,0,1-.242,1.322,2.839,2.839,0,0,1-.744,1.046,2.9,2.9,0,0,1-1.189.625ZM67.8,116.489a3.5,3.5,0,0,1-1.418.053A4.286,4.286,0,0,1,65,116.057a4.722,4.722,0,0,1-1.19-.936,4.522,4.522,0,0,1-.84-1.3,3.824,3.824,0,0,1-.3-1.431,3.113,3.113,0,0,1,.256-1.288,2.75,2.75,0,0,1,.754-1.007,2.892,2.892,0,0,1,1.189-.588,3.51,3.51,0,0,1,1.415-.048,4.291,4.291,0,0,1,1.376.485,4.723,4.723,0,0,1,1.184.931,4.524,4.524,0,0,1,.839,1.293,3.834,3.834,0,0,1,.309,1.425,3.12,3.12,0,0,1-.248,1.288,2.75,2.75,0,0,1-.747,1.012,2.887,2.887,0,0,1-1.187.6ZM57.592,92.219a3.551,3.551,0,0,1-1.412.035,4.343,4.343,0,0,1-1.373-.488,4.725,4.725,0,0,1-1.179-.927A4.44,4.44,0,0,1,52.8,89.56a3.685,3.685,0,0,1-.295-1.4,2.98,2.98,0,0,1,.262-1.255,2.669,2.669,0,0,1,.756-.975,2.884,2.884,0,0,1,1.187-.561,3.558,3.558,0,0,1,1.408-.031,4.343,4.343,0,0,1,1.366.489,4.723,4.723,0,0,1,1.173.922,4.44,4.44,0,0,1,.827,1.272,3.692,3.692,0,0,1,.3,1.394,2.986,2.986,0,0,1-.255,1.254,2.669,2.669,0,0,1-.75.979,2.878,2.878,0,0,1-1.185.568ZM47.578,68.412a3.6,3.6,0,0,1-1.405.019,4.4,4.4,0,0,1-1.364-.492,4.724,4.724,0,0,1-1.167-.918,4.357,4.357,0,0,1-.817-1.258,3.55,3.55,0,0,1-.285-1.37,2.853,2.853,0,0,1,.269-1.222,2.593,2.593,0,0,1,.758-.943,2.878,2.878,0,0,1,1.185-.534,3.609,3.609,0,0,1,1.4-.014,4.4,4.4,0,0,1,1.357.492,4.726,4.726,0,0,1,1.162.914,4.36,4.36,0,0,1,.815,1.251,3.559,3.559,0,0,1,.289,1.365,2.86,2.86,0,0,1-.261,1.222,2.594,2.594,0,0,1-.752.948,2.869,2.869,0,0,1-1.182.541ZM37.754,45.054a3.65,3.65,0,0,1-1.4,0,4.452,4.452,0,0,1-1.354-.5,4.725,4.725,0,0,1-1.156-.91,4.279,4.279,0,0,1-.805-1.237,3.422,3.422,0,0,1-.275-1.341,2.734,2.734,0,0,1,.274-1.19,2.522,2.522,0,0,1,.76-.913,2.875,2.875,0,0,1,1.182-.508,3.661,3.661,0,0,1,1.4,0,4.456,4.456,0,0,1,1.348.5,4.724,4.724,0,0,1,1.151.905,4.281,4.281,0,0,1,.8,1.231,3.429,3.429,0,0,1,.279,1.336,2.739,2.739,0,0,1-.267,1.19,2.522,2.522,0,0,1-.754.917,2.866,2.866,0,0,1-1.18.516Zm-9.641-22.92a3.7,3.7,0,0,1-1.392-.013,4.506,4.506,0,0,1-1.345-.5,4.725,4.725,0,0,1-1.146-.9,4.2,4.2,0,0,1-.794-1.217,3.3,3.3,0,0,1-.266-1.313,2.62,2.62,0,0,1,.28-1.16,2.457,2.457,0,0,1,.762-.883,2.873,2.873,0,0,1,1.18-.484,3.711,3.711,0,0,1,1.388.017,4.513,4.513,0,0,1,1.339.5,4.724,4.724,0,0,1,1.14.9,4.2,4.2,0,0,1,.793,1.211,3.3,3.3,0,0,1,.27,1.308,2.625,2.625,0,0,1-.273,1.159,2.456,2.456,0,0,1-.756.887,2.863,2.863,0,0,1-1.177.49ZM55.8,147.195a3.574,3.574,0,0,1-1.461.076,4.29,4.29,0,0,1-1.42-.485,4.723,4.723,0,0,1-1.219-.958,4.588,4.588,0,0,1-.856-1.343,3.982,3.982,0,0,1-.3-1.487,3.322,3.322,0,0,1,.273-1.347,2.951,2.951,0,0,1,.784-1.061,3.042,3.042,0,0,1,1.229-.631,3.581,3.581,0,0,1,1.457-.071,4.3,4.3,0,0,1,1.413.485,4.723,4.723,0,0,1,1.212.953,4.592,4.592,0,0,1,.854,1.336,3.987,3.987,0,0,1,.307,1.482,3.327,3.327,0,0,1-.266,1.347,2.954,2.954,0,0,1-.778,1.066,3.037,3.037,0,0,1-1.227.638ZM45.469,122.047a3.622,3.622,0,0,1-1.454.058,4.347,4.347,0,0,1-1.41-.489,4.724,4.724,0,0,1-1.207-.949,4.5,4.5,0,0,1-.843-1.32,3.832,3.832,0,0,1-.293-1.454,3.176,3.176,0,0,1,.28-1.311,2.861,2.861,0,0,1,.786-1.027,3.029,3.029,0,0,1,1.227-.6A3.629,3.629,0,0,1,44,114.9a4.352,4.352,0,0,1,1.4.489,4.722,4.722,0,0,1,1.2.944,4.5,4.5,0,0,1,.842,1.313,3.839,3.839,0,0,1,.3,1.449,3.183,3.183,0,0,1-.272,1.311,2.863,2.863,0,0,1-.78,1.031,3.024,3.024,0,0,1-1.225.609ZM35.339,97.389a3.67,3.67,0,0,1-1.447.04,4.4,4.4,0,0,1-1.4-.493A4.725,4.725,0,0,1,31.3,96a4.415,4.415,0,0,1-.831-1.3,3.689,3.689,0,0,1-.283-1.423A3.04,3.04,0,0,1,30.469,92a2.778,2.778,0,0,1,.788-.993,3.019,3.019,0,0,1,1.224-.573,3.678,3.678,0,0,1,1.443-.035,4.406,4.406,0,0,1,1.393.494,4.722,4.722,0,0,1,1.189.935,4.417,4.417,0,0,1,.83,1.291,3.694,3.694,0,0,1,.287,1.418,3.045,3.045,0,0,1-.279,1.276,2.778,2.778,0,0,1-.782,1,3.012,3.012,0,0,1-1.222.58ZM25.4,73.208a3.719,3.719,0,0,1-1.44.022,4.462,4.462,0,0,1-1.39-.5,4.728,4.728,0,0,1-1.183-.931,4.332,4.332,0,0,1-.82-1.277,3.551,3.551,0,0,1-.273-1.392,2.911,2.911,0,0,1,.292-1.243,2.7,2.7,0,0,1,.79-.96,3.012,3.012,0,0,1,1.221-.546,3.728,3.728,0,0,1,1.436-.018,4.465,4.465,0,0,1,1.383.5,4.727,4.727,0,0,1,1.178.926,4.336,4.336,0,0,1,.818,1.27,3.558,3.558,0,0,1,.277,1.387,2.915,2.915,0,0,1-.285,1.243,2.7,2.7,0,0,1-.784.965,3,3,0,0,1-1.22.552ZM15.66,49.49a3.769,3.769,0,0,1-1.433.006,4.514,4.514,0,0,1-1.38-.5,4.729,4.729,0,0,1-1.172-.922,4.252,4.252,0,0,1-.808-1.256,3.421,3.421,0,0,1-.264-1.362,2.789,2.789,0,0,1,.3-1.21,2.626,2.626,0,0,1,.791-.929A3.007,3.007,0,0,1,12.91,42.8a3.778,3.778,0,0,1,1.429,0,4.518,4.518,0,0,1,1.374.5,4.725,4.725,0,0,1,1.166.917,4.256,4.256,0,0,1,.807,1.249,3.429,3.429,0,0,1,.268,1.357,2.793,2.793,0,0,1-.291,1.21,2.626,2.626,0,0,1-.786.933,3,3,0,0,1-1.217.526ZM6.1,26.222a3.823,3.823,0,0,1-1.426-.01,4.57,4.57,0,0,1-1.371-.5,4.726,4.726,0,0,1-1.161-.913,4.175,4.175,0,0,1-.8-1.235,3.3,3.3,0,0,1-.255-1.333,2.674,2.674,0,0,1,.3-1.179,2.559,2.559,0,0,1,.793-.9A3,3,0,0,1,3.4,19.655a3.828,3.828,0,0,1,1.422.015,4.571,4.571,0,0,1,1.364.5,4.726,4.726,0,0,1,1.156.909,4.178,4.178,0,0,1,.8,1.229A3.3,3.3,0,0,1,8.4,23.64a2.677,2.677,0,0,1-.3,1.179,2.558,2.558,0,0,1-.787.9,3,3,0,0,1-1.214.5ZM231.346,268.3a2.787,2.787,0,0,1-1.321.162,3.672,3.672,0,0,1-1.34-.434,4.71,4.71,0,0,1-1.2-.947,5.271,5.271,0,0,1-.914-1.375,4.946,4.946,0,0,1-.426-1.558,3.981,3.981,0,0,1,.112-1.442,3.015,3.015,0,0,1,.605-1.167,2.539,2.539,0,0,1,1.054-.736,2.792,2.792,0,0,1,1.317-.156,3.677,3.677,0,0,1,1.334.435,4.709,4.709,0,0,1,1.2.943,5.271,5.271,0,0,1,.911,1.367,4.951,4.951,0,0,1,.429,1.552,3.994,3.994,0,0,1-.106,1.441,3.024,3.024,0,0,1-.6,1.172,2.541,2.541,0,0,1-1.052.744Zm-11.935-26.064a2.825,2.825,0,0,1-1.316.142,3.729,3.729,0,0,1-1.332-.44,4.71,4.71,0,0,1-1.193-.938,5.169,5.169,0,0,1-.9-1.352,4.762,4.762,0,0,1-.413-1.524,3.8,3.8,0,0,1,.122-1.4,2.9,2.9,0,0,1,.611-1.131,2.513,2.513,0,0,1,1.054-.705,2.831,2.831,0,0,1,1.313-.136,3.733,3.733,0,0,1,1.325.44,4.709,4.709,0,0,1,1.187.933,5.169,5.169,0,0,1,.9,1.344,4.771,4.771,0,0,1,.416,1.519,3.814,3.814,0,0,1-.115,1.4,2.911,2.911,0,0,1-.6,1.136A2.513,2.513,0,0,1,219.411,242.239Zm-11.7-25.561a2.865,2.865,0,0,1-1.312.122,3.783,3.783,0,0,1-1.323-.445,4.711,4.711,0,0,1-1.181-.929A5.07,5.07,0,0,1,203,214.1a4.587,4.587,0,0,1-.4-1.492,3.629,3.629,0,0,1,.131-1.368,2.8,2.8,0,0,1,.616-1.1,2.49,2.49,0,0,1,1.055-.676,2.872,2.872,0,0,1,1.308-.117,3.788,3.788,0,0,1,1.317.445,4.711,4.711,0,0,1,1.176.925,5.069,5.069,0,0,1,.885,1.322,4.594,4.594,0,0,1,.4,1.486,3.64,3.64,0,0,1-.125,1.368,2.8,2.8,0,0,1-.61,1.1A2.488,2.488,0,0,1,207.707,216.679Zm-11.481-25.072a2.9,2.9,0,0,1-1.307.1,3.839,3.839,0,0,1-1.314-.45,4.712,4.712,0,0,1-1.17-.92,4.974,4.974,0,0,1-.874-1.307,4.42,4.42,0,0,1-.389-1.46,3.468,3.468,0,0,1,.14-1.333,2.7,2.7,0,0,1,.621-1.062,2.469,2.469,0,0,1,1.055-.647,2.913,2.913,0,0,1,1.3-.1,3.843,3.843,0,0,1,1.308.45,4.714,4.714,0,0,1,1.165.916,4.976,4.976,0,0,1,.872,1.3,4.427,4.427,0,0,1,.392,1.455,3.479,3.479,0,0,1-.133,1.333,2.7,2.7,0,0,1-.615,1.066,2.467,2.467,0,0,1-1.053.654Zm-11.263-24.6a2.948,2.948,0,0,1-1.3.086,3.892,3.892,0,0,1-1.306-.454,4.714,4.714,0,0,1-1.159-.912,4.881,4.881,0,0,1-.862-1.286,4.261,4.261,0,0,1-.378-1.429,3.314,3.314,0,0,1,.148-1.3,2.606,2.606,0,0,1,.626-1.029,2.452,2.452,0,0,1,1.055-.619,2.955,2.955,0,0,1,1.3-.081,3.9,3.9,0,0,1,1.3.454,4.715,4.715,0,0,1,1.154.907,4.885,4.885,0,0,1,.86,1.279,4.266,4.266,0,0,1,.381,1.424,3.324,3.324,0,0,1-.142,1.3,2.609,2.609,0,0,1-.62,1.033,2.45,2.45,0,0,1-1.053.625Zm-11.052-24.135a2.992,2.992,0,0,1-1.3.069,3.945,3.945,0,0,1-1.3-.458,4.714,4.714,0,0,1-1.148-.9,4.791,4.791,0,0,1-.85-1.265,4.105,4.105,0,0,1-.367-1.4,3.167,3.167,0,0,1,.156-1.267,2.517,2.517,0,0,1,.63-1,2.439,2.439,0,0,1,1.055-.592,3,3,0,0,1,1.294-.064,3.951,3.951,0,0,1,1.292.459,4.715,4.715,0,0,1,1.143.9,4.8,4.8,0,0,1,.848,1.258,4.115,4.115,0,0,1,.37,1.395,3.178,3.178,0,0,1-.15,1.267,2.521,2.521,0,0,1-.624,1A2.436,2.436,0,0,1,173.911,142.875Zm37.1,133.2a2.881,2.881,0,0,1-1.354.169,3.722,3.722,0,0,1-1.367-.438,4.711,4.711,0,0,1-1.222-.96,5.255,5.255,0,0,1-.919-1.4,4.959,4.959,0,0,1-.417-1.586,4.052,4.052,0,0,1,.132-1.469,3.124,3.124,0,0,1,.634-1.191,2.656,2.656,0,0,1,1.088-.754,2.887,2.887,0,0,1,1.351-.163,3.727,3.727,0,0,1,1.36.438,4.711,4.711,0,0,1,1.216.956,5.252,5.252,0,0,1,.916,1.39,4.965,4.965,0,0,1,.42,1.579,4.065,4.065,0,0,1-.126,1.468,3.135,3.135,0,0,1-.628,1.2,2.657,2.657,0,0,1-1.085.762Zm-11.9-26.5a2.92,2.92,0,0,1-1.349.149,3.779,3.779,0,0,1-1.358-.443,4.71,4.71,0,0,1-1.21-.951,5.151,5.151,0,0,1-.9-1.373,4.773,4.773,0,0,1-.4-1.551,3.868,3.868,0,0,1,.142-1.431,3.007,3.007,0,0,1,.639-1.154,2.627,2.627,0,0,1,1.088-.722,2.925,2.925,0,0,1,1.346-.143,3.783,3.783,0,0,1,1.351.444,4.711,4.711,0,0,1,1.2.946,5.151,5.151,0,0,1,.9,1.366,4.78,4.78,0,0,1,.408,1.545,3.879,3.879,0,0,1-.135,1.43,3.016,3.016,0,0,1-.633,1.159,2.627,2.627,0,0,1-1.086.73Zm-11.667-25.985a2.959,2.959,0,0,1-1.344.129,3.835,3.835,0,0,1-1.349-.448,4.714,4.714,0,0,1-1.2-.942,5.052,5.052,0,0,1-.892-1.35,4.6,4.6,0,0,1-.392-1.517,3.693,3.693,0,0,1,.151-1.394,2.9,2.9,0,0,1,.644-1.118,2.6,2.6,0,0,1,1.088-.691,2.965,2.965,0,0,1,1.341-.123,3.837,3.837,0,0,1,1.342.449,4.713,4.713,0,0,1,1.192.937,5.05,5.05,0,0,1,.89,1.343,4.6,4.6,0,0,1,.4,1.511,3.7,3.7,0,0,1-.144,1.393,2.906,2.906,0,0,1-.638,1.122,2.6,2.6,0,0,1-1.086.7ZM176.007,198.1a3,3,0,0,1-1.339.11,3.891,3.891,0,0,1-1.34-.453,4.712,4.712,0,0,1-1.186-.933,4.954,4.954,0,0,1-.879-1.328,4.426,4.426,0,0,1-.38-1.485,3.525,3.525,0,0,1,.159-1.357,2.8,2.8,0,0,1,.649-1.083,2.582,2.582,0,0,1,1.088-.661,3.007,3.007,0,0,1,1.336-.1,3.894,3.894,0,0,1,1.333.454,4.712,4.712,0,0,1,1.18.928,4.954,4.954,0,0,1,.877,1.32,4.433,4.433,0,0,1,.384,1.479,3.536,3.536,0,0,1-.153,1.357,2.8,2.8,0,0,1-.643,1.087,2.579,2.579,0,0,1-1.086.668Zm-11.221-24.992a3.044,3.044,0,0,1-1.334.091,3.943,3.943,0,0,1-1.331-.458,4.715,4.715,0,0,1-1.175-.924,4.86,4.86,0,0,1-.866-1.305,4.264,4.264,0,0,1-.369-1.453,3.369,3.369,0,0,1,.168-1.322,2.7,2.7,0,0,1,.653-1.049,2.564,2.564,0,0,1,1.088-.632,3.05,3.05,0,0,1,1.331-.086,3.951,3.951,0,0,1,1.325.458,4.716,4.716,0,0,1,1.169.92,4.863,4.863,0,0,1,.864,1.3,4.271,4.271,0,0,1,.372,1.448,3.38,3.38,0,0,1-.161,1.322,2.705,2.705,0,0,1-.647,1.053,2.56,2.56,0,0,1-1.086.639Zm-11.008-24.516a3.087,3.087,0,0,1-1.329.074,4,4,0,0,1-1.322-.462,4.715,4.715,0,0,1-1.164-.915A4.77,4.77,0,0,1,149.11,146a4.113,4.113,0,0,1-.358-1.422,3.223,3.223,0,0,1,.176-1.289,2.61,2.61,0,0,1,.657-1.016,2.549,2.549,0,0,1,1.087-.6A3.094,3.094,0,0,1,152,141.6a4.005,4.005,0,0,1,1.316.463,4.716,4.716,0,0,1,1.158.911,4.771,4.771,0,0,1,.852,1.277,4.117,4.117,0,0,1,.361,1.417,3.23,3.23,0,0,1-.169,1.288,2.614,2.614,0,0,1-.652,1.02,2.545,2.545,0,0,1-1.085.611ZM190.1,284.058a2.981,2.981,0,0,1-1.388.178,3.775,3.775,0,0,1-1.394-.441,4.713,4.713,0,0,1-1.239-.974,5.239,5.239,0,0,1-.923-1.421,4.977,4.977,0,0,1-.408-1.614,4.128,4.128,0,0,1,.154-1.5,3.242,3.242,0,0,1,.664-1.216,2.778,2.778,0,0,1,1.123-.772,2.986,2.986,0,0,1,1.385-.171,3.778,3.778,0,0,1,1.387.442,4.714,4.714,0,0,1,1.233.969,5.241,5.241,0,0,1,.921,1.412,4.987,4.987,0,0,1,.411,1.608,4.138,4.138,0,0,1-.147,1.5,3.25,3.25,0,0,1-.657,1.221,2.78,2.78,0,0,1-1.121.78ZM178.245,257.1a3.02,3.02,0,0,1-1.383.156,3.832,3.832,0,0,1-1.385-.447,4.711,4.711,0,0,1-1.227-.964,5.133,5.133,0,0,1-.91-1.4,4.788,4.788,0,0,1-.395-1.578,3.939,3.939,0,0,1,.163-1.458,3.121,3.121,0,0,1,.669-1.177,2.748,2.748,0,0,1,1.123-.739,3.026,3.026,0,0,1,1.38-.15,3.836,3.836,0,0,1,1.378.447,4.713,4.713,0,0,1,1.221.96,5.137,5.137,0,0,1,.908,1.388,4.8,4.8,0,0,1,.4,1.572,3.949,3.949,0,0,1-.156,1.457,3.128,3.128,0,0,1-.663,1.182,2.749,2.749,0,0,1-1.121.747Zm-11.623-26.423a3.06,3.06,0,0,1-1.378.136,3.888,3.888,0,0,1-1.375-.452,4.715,4.715,0,0,1-1.215-.955,5.032,5.032,0,0,1-.9-1.372,4.609,4.609,0,0,1-.383-1.544,3.76,3.76,0,0,1,.172-1.419,3.007,3.007,0,0,1,.673-1.14,2.722,2.722,0,0,1,1.123-.707,3.067,3.067,0,0,1,1.374-.13,3.891,3.891,0,0,1,1.369.453,4.716,4.716,0,0,1,1.209.95,5.037,5.037,0,0,1,.894,1.364,4.619,4.619,0,0,1,.386,1.538,3.768,3.768,0,0,1-.165,1.419,3.014,3.014,0,0,1-.667,1.145,2.721,2.721,0,0,1-1.121.715Zm-11.395-25.9a3.1,3.1,0,0,1-1.372.116,3.944,3.944,0,0,1-1.366-.457,4.715,4.715,0,0,1-1.2-.946,4.935,4.935,0,0,1-.883-1.348,4.436,4.436,0,0,1-.371-1.51,3.589,3.589,0,0,1,.18-1.382,2.9,2.9,0,0,1,.678-1.1,2.7,2.7,0,0,1,1.122-.676,3.108,3.108,0,0,1,1.369-.111,3.948,3.948,0,0,1,1.359.458,4.716,4.716,0,0,1,1.2.941,4.939,4.939,0,0,1,.881,1.341,4.446,4.446,0,0,1,.374,1.5,3.6,3.6,0,0,1-.174,1.382,2.906,2.906,0,0,1-.672,1.109,2.7,2.7,0,0,1-1.12.684Zm-11.173-25.4a3.145,3.145,0,0,1-1.367.1,4,4,0,0,1-1.357-.462,4.716,4.716,0,0,1-1.191-.937,4.839,4.839,0,0,1-.87-1.326,4.27,4.27,0,0,1-.359-1.477,3.429,3.429,0,0,1,.188-1.346,2.8,2.8,0,0,1,.682-1.069,2.679,2.679,0,0,1,1.121-.647,3.15,3.15,0,0,1,1.363-.092,4,4,0,0,1,1.35.462,4.717,4.717,0,0,1,1.185.932,4.844,4.844,0,0,1,.868,1.318,4.281,4.281,0,0,1,.363,1.472,3.437,3.437,0,0,1-.182,1.346,2.806,2.806,0,0,1-.676,1.074,2.677,2.677,0,0,1-1.12.654ZM133.1,154.465a3.189,3.189,0,0,1-1.361.079,4.055,4.055,0,0,1-1.348-.467,4.767,4.767,0,0,1-2.038-2.231A4.115,4.115,0,0,1,128,150.4a3.279,3.279,0,0,1,.2-1.311,2.71,2.71,0,0,1,.686-1.035,2.663,2.663,0,0,1,1.12-.618,3.2,3.2,0,0,1,1.358-.074,4.06,4.06,0,0,1,1.341.467,4.769,4.769,0,0,1,2.03,2.22,4.127,4.127,0,0,1,.351,1.44,3.287,3.287,0,0,1-.19,1.311,2.712,2.712,0,0,1-.68,1.04,2.66,2.66,0,0,1-1.119.625Zm34.538,138.175a3.091,3.091,0,0,1-1.426.187,3.831,3.831,0,0,1-1.424-.444,4.715,4.715,0,0,1-1.258-.989,5.222,5.222,0,0,1-.928-1.445,5,5,0,0,1-.4-1.645,4.212,4.212,0,0,1,.177-1.528,3.37,3.37,0,0,1,.7-1.243,2.915,2.915,0,0,1,1.162-.792,3.1,3.1,0,0,1,1.422-.18,3.835,3.835,0,0,1,1.417.445,4.714,4.714,0,0,1,1.252.984,5.22,5.22,0,0,1,.926,1.437,5,5,0,0,1,.4,1.638,4.222,4.222,0,0,1-.17,1.527,3.38,3.38,0,0,1-.69,1.248,2.916,2.916,0,0,1-1.16.8Zm-11.807-27.448a3.129,3.129,0,0,1-1.42.165,3.889,3.889,0,0,1-1.414-.45,4.713,4.713,0,0,1-1.245-.979,5.116,5.116,0,0,1-.914-1.42,4.807,4.807,0,0,1-.384-1.608,4.017,4.017,0,0,1,.186-1.487,3.245,3.245,0,0,1,.7-1.2,2.883,2.883,0,0,1,1.161-.758,3.136,3.136,0,0,1,1.416-.158,3.893,3.893,0,0,1,1.407.451,4.714,4.714,0,0,1,1.239.974,5.113,5.113,0,0,1,.912,1.412,4.812,4.812,0,0,1,.388,1.6,4.027,4.027,0,0,1-.179,1.486,3.253,3.253,0,0,1-.695,1.208A2.883,2.883,0,0,1,155.828,265.193Zm-11.569-26.9a3.169,3.169,0,0,1-1.414.144,3.944,3.944,0,0,1-1.4-.456,4.717,4.717,0,0,1-1.233-.969,5.015,5.015,0,0,1-.9-1.4,4.625,4.625,0,0,1-.372-1.572,3.835,3.835,0,0,1,.2-1.447,3.127,3.127,0,0,1,.706-1.164,2.854,2.854,0,0,1,1.16-.725,3.176,3.176,0,0,1,1.411-.137,3.949,3.949,0,0,1,1.4.457,4.714,4.714,0,0,1,1.227.964,5.011,5.011,0,0,1,.9,1.387,4.628,4.628,0,0,1,.376,1.566,3.842,3.842,0,0,1-.188,1.447,3.134,3.134,0,0,1-.7,1.169A2.853,2.853,0,0,1,144.259,238.3Zm-11.338-26.359a3.211,3.211,0,0,1-1.408.123,4,4,0,0,1-1.394-.461,4.716,4.716,0,0,1-1.221-.96,4.914,4.914,0,0,1-.887-1.371,4.449,4.449,0,0,1-.36-1.537,3.661,3.661,0,0,1,.2-1.409,3.017,3.017,0,0,1,.71-1.127,2.829,2.829,0,0,1,1.159-.693,3.218,3.218,0,0,1,1.4-.117,4.006,4.006,0,0,1,1.388.462,4.717,4.717,0,0,1,1.214.955,4.914,4.914,0,0,1,.885,1.363,4.454,4.454,0,0,1,.364,1.531,3.67,3.67,0,0,1-.2,1.408,3.023,3.023,0,0,1-.7,1.132,2.828,2.828,0,0,1-1.158.7ZM121.806,186.1a3.255,3.255,0,0,1-1.4.1,4.056,4.056,0,0,1-1.385-.466,4.718,4.718,0,0,1-1.209-.95,4.819,4.819,0,0,1-.874-1.348,4.282,4.282,0,0,1-.348-1.5,3.5,3.5,0,0,1,.211-1.372,2.914,2.914,0,0,1,.713-1.091,2.81,2.81,0,0,1,1.158-.662,3.262,3.262,0,0,1,1.4-.1,4.06,4.06,0,0,1,1.378.467,4.72,4.72,0,0,1,1.2.946,4.82,4.82,0,0,1,.872,1.34,4.286,4.286,0,0,1,.352,1.5,3.5,3.5,0,0,1-.2,1.371,2.919,2.919,0,0,1-.707,1.1,2.806,2.806,0,0,1-1.157.67Zm-10.9-25.333a3.3,3.3,0,0,1-1.4.084,4.114,4.114,0,0,1-1.375-.471,4.754,4.754,0,0,1-2.059-2.266,4.124,4.124,0,0,1-.337-1.471,3.341,3.341,0,0,1,.219-1.336,2.763,2.763,0,0,1,1.874-1.688,3.306,3.306,0,0,1,1.393-.079,4.117,4.117,0,0,1,1.368.471,4.754,4.754,0,0,1,2.051,2.254,4.127,4.127,0,0,1,.341,1.465,3.349,3.349,0,0,1-.212,1.335,2.823,2.823,0,0,1-.711,1.061A2.788,2.788,0,0,1,110.909,160.767Zm34.549,140.346a3.2,3.2,0,0,1-1.464.2,3.887,3.887,0,0,1-1.454-.447,4.716,4.716,0,0,1-1.277-1,5.2,5.2,0,0,1-.933-1.47,5.018,5.018,0,0,1-.386-1.675,4.3,4.3,0,0,1,.2-1.558,3.5,3.5,0,0,1,.73-1.27,3.054,3.054,0,0,1,1.2-.812,3.207,3.207,0,0,1,1.46-.189,3.891,3.891,0,0,1,1.446.448,4.717,4.717,0,0,1,1.27,1,5.2,5.2,0,0,1,.931,1.461,5.022,5.022,0,0,1,.39,1.669,4.308,4.308,0,0,1-.193,1.557,3.511,3.511,0,0,1-.723,1.275,3.057,3.057,0,0,1-1.2.82Zm-11.75-27.935a3.241,3.241,0,0,1-1.457.173,3.946,3.946,0,0,1-1.443-.454,4.717,4.717,0,0,1-1.264-.993,5.1,5.1,0,0,1-.919-1.444,4.823,4.823,0,0,1-.373-1.637,4.1,4.1,0,0,1,.21-1.516,3.372,3.372,0,0,1,.734-1.229,3.019,3.019,0,0,1,1.2-.776,3.246,3.246,0,0,1,1.453-.166,3.949,3.949,0,0,1,1.436.454,4.717,4.717,0,0,1,1.257.988,5.1,5.1,0,0,1,.917,1.435,4.829,4.829,0,0,1,.377,1.631,4.109,4.109,0,0,1-.2,1.515,3.379,3.379,0,0,1-.727,1.234A3.021,3.021,0,0,1,133.709,273.178ZM122.2,245.814a3.282,3.282,0,0,1-1.451.151,4,4,0,0,1-1.433-.46,4.718,4.718,0,0,1-1.251-.983,4.993,4.993,0,0,1-.9-1.418,4.639,4.639,0,0,1-.361-1.6,3.912,3.912,0,0,1,.218-1.475,3.25,3.25,0,0,1,.738-1.189,2.989,2.989,0,0,1,1.2-.742,3.287,3.287,0,0,1,1.447-.145,4.006,4.006,0,0,1,1.426.46,4.718,4.718,0,0,1,1.244.978,4.993,4.993,0,0,1,.9,1.41,4.644,4.644,0,0,1,.365,1.594,3.92,3.92,0,0,1-.211,1.474,3.255,3.255,0,0,1-.732,1.194A2.989,2.989,0,0,1,122.2,245.814ZM110.922,219a3.324,3.324,0,0,1-1.444.13,4.061,4.061,0,0,1-1.423-.465,4.717,4.717,0,0,1-1.238-.973,4.892,4.892,0,0,1-.891-1.393,4.461,4.461,0,0,1-.349-1.564,3.733,3.733,0,0,1,.227-1.435,3.137,3.137,0,0,1,.742-1.15,2.963,2.963,0,0,1,1.2-.709,3.328,3.328,0,0,1,1.441-.124,4.065,4.065,0,0,1,1.416.466,4.719,4.719,0,0,1,1.232.968,4.894,4.894,0,0,1,.889,1.385,4.468,4.468,0,0,1,.353,1.558,3.743,3.743,0,0,1-.219,1.435,3.142,3.142,0,0,1-.735,1.155,2.961,2.961,0,0,1-1.2.717ZM99.871,192.73a3.366,3.366,0,0,1-1.438.11,4.115,4.115,0,0,1-1.413-.47,4.719,4.719,0,0,1-1.226-.964,4.8,4.8,0,0,1-.878-1.369,4.291,4.291,0,0,1-.337-1.529,3.565,3.565,0,0,1,.234-1.4A3.029,3.029,0,0,1,95.559,186a2.94,2.94,0,0,1,1.2-.678,3.372,3.372,0,0,1,1.434-.1,4.119,4.119,0,0,1,1.406.471,4.72,4.72,0,0,1,1.22.959,4.8,4.8,0,0,1,.876,1.361,4.3,4.3,0,0,1,.341,1.524,3.573,3.573,0,0,1-.227,1.4,3.033,3.033,0,0,1-.739,1.118,2.937,2.937,0,0,1-1.194.685ZM89.039,166.978a3.41,3.41,0,0,1-1.431.09,4.173,4.173,0,0,1-1.4-.475,4.74,4.74,0,0,1-2.079-2.3,4.13,4.13,0,0,1-.326-1.5,3.409,3.409,0,0,1,.242-1.36,2.885,2.885,0,0,1,1.942-1.724,3.416,3.416,0,0,1,1.428-.085,4.176,4.176,0,0,1,1.4.476,4.742,4.742,0,0,1,2.071,2.288,4.137,4.137,0,0,1,.33,1.49,3.415,3.415,0,0,1-.235,1.36,2.886,2.886,0,0,1-1.934,1.736Zm33.583,142.858a3.319,3.319,0,0,1-1.5.206,3.945,3.945,0,0,1-1.484-.451,4.719,4.719,0,0,1-1.3-1.018,5.187,5.187,0,0,1-.938-1.5,5.042,5.042,0,0,1-.374-1.707,4.391,4.391,0,0,1,.226-1.59,3.641,3.641,0,0,1,.764-1.3,3.2,3.2,0,0,1,1.241-.832,3.324,3.324,0,0,1,1.5-.2,3.949,3.949,0,0,1,1.477.452,4.718,4.718,0,0,1,1.289,1.013,5.186,5.186,0,0,1,.935,1.487,5.047,5.047,0,0,1,.378,1.7,4.4,4.4,0,0,1-.218,1.589,3.652,3.652,0,0,1-.757,1.3,3.206,3.206,0,0,1-1.239.841ZM110.939,281.4a3.359,3.359,0,0,1-1.5.182,4,4,0,0,1-1.473-.457,4.718,4.718,0,0,1-1.282-1.008,5.079,5.079,0,0,1-.923-1.468,4.844,4.844,0,0,1-.361-1.668,4.187,4.187,0,0,1,.235-1.546,3.508,3.508,0,0,1,.768-1.255,3.166,3.166,0,0,1,1.24-.8,3.363,3.363,0,0,1,1.492-.175,4.008,4.008,0,0,1,1.466.458,4.72,4.72,0,0,1,1.276,1,5.079,5.079,0,0,1,.921,1.46,4.849,4.849,0,0,1,.365,1.661,4.2,4.2,0,0,1-.227,1.545,3.514,3.514,0,0,1-.762,1.26,3.166,3.166,0,0,1-1.238.8ZM99.5,253.549a3.4,3.4,0,0,1-1.489.159,4.061,4.061,0,0,1-1.463-.463,4.721,4.721,0,0,1-1.269-1,4.975,4.975,0,0,1-.909-1.442,4.656,4.656,0,0,1-.349-1.629,4,4,0,0,1,.243-1.5,3.379,3.379,0,0,1,.772-1.214,3.132,3.132,0,0,1,1.238-.76,3.4,3.4,0,0,1,1.485-.153,4.066,4.066,0,0,1,1.455.464,4.72,4.72,0,0,1,1.263.992,4.974,4.974,0,0,1,.907,1.434,4.659,4.659,0,0,1,.353,1.623,4,4,0,0,1-.236,1.5,3.386,3.386,0,0,1-.765,1.219,3.131,3.131,0,0,1-1.236.769ZM88.29,226.272a3.441,3.441,0,0,1-1.482.137,4.12,4.12,0,0,1-1.452-.469,4.719,4.719,0,0,1-1.256-.987,4.874,4.874,0,0,1-.9-1.416,4.475,4.475,0,0,1-.337-1.592,3.812,3.812,0,0,1,.251-1.463,3.263,3.263,0,0,1,.775-1.174,3.1,3.1,0,0,1,1.236-.726,3.445,3.445,0,0,1,1.478-.131,4.124,4.124,0,0,1,1.445.47,4.722,4.722,0,0,1,1.25.982,4.874,4.874,0,0,1,.893,1.408,4.482,4.482,0,0,1,.341,1.586,3.82,3.82,0,0,1-.244,1.462,3.268,3.268,0,0,1-.769,1.179,3.1,3.1,0,0,1-1.234.735ZM77.311,199.549a3.484,3.484,0,0,1-1.475.116,4.175,4.175,0,0,1-1.441-.474,4.721,4.721,0,0,1-1.243-.977,4.776,4.776,0,0,1-.882-1.391,4.3,4.3,0,0,1-.325-1.556,3.64,3.64,0,0,1,.259-1.423,3.151,3.151,0,0,1,.778-1.135,3.08,3.08,0,0,1,1.234-.694,3.489,3.489,0,0,1,1.471-.11,4.179,4.179,0,0,1,1.434.475,4.722,4.722,0,0,1,1.237.972,4.778,4.778,0,0,1,.88,1.383,4.31,4.31,0,0,1,.329,1.55,3.646,3.646,0,0,1-.251,1.423,3.156,3.156,0,0,1-.772,1.14,3.077,3.077,0,0,1-1.232.7ZM66.553,173.364a3.528,3.528,0,0,1-1.468.1,4.232,4.232,0,0,1-1.431-.48,4.727,4.727,0,0,1-2.1-2.335,4.138,4.138,0,0,1-.314-1.521,3.478,3.478,0,0,1,.266-1.385,3.016,3.016,0,0,1,2.013-1.76,3.534,3.534,0,0,1,1.464-.09,4.237,4.237,0,0,1,1.424.48,4.727,4.727,0,0,1,2.092,2.322,4.148,4.148,0,0,1,.318,1.516,3.485,3.485,0,0,1-.259,1.385,3.016,3.016,0,0,1-2,1.773Z" fill="#dc2249"/>
    </clipPath>
  </defs>
  <g id="Group_22" data-name="Group 22" clip-path="url(#clip-path)">
    <path id="Path_32" data-name="Path 32" d="M0,21.269,118.737,0l126.25,274.019L122.311,321.3Z" transform="translate(-5.293 -3.98)" fill="#dc2249"/>
  </g>
</svg>
